<svg xmlns="http://www.w3.org/2000/svg" viewBox="0 0 396.79 137.71"><defs><style>.cls-1{fill:#e5e5e5;}.cls-2{fill:#04b670;}.cls-3{fill:#c5ff49;}</style></defs><g id="Layer_2" data-name="Layer 2"><g id="Layer_1-2" data-name="Layer 1"><path class="cls-1" d="M250.19,68.23a8.32,8.32,0,0,0-.52,8.85l19,35.86H257.21L241,82.59l-19.6,30.35H211.12V23h10.36V98.45h.26v-2a10.94,10.94,0,0,1,1.77-5.9L252,46.6h12.33Z"/><path class="cls-1" d="M286,35.55a5.71,5.71,0,0,1-9.74-4.1,5.61,5.61,0,0,1,1.67-4.1,5.71,5.71,0,0,1,8.07,0,5.87,5.87,0,0,1,0,8.2Zm-9.08,77.39-.13-66.34H287.1v66.34Z"/><path class="cls-1" d="M317.13,103.44h14v9.37H312.48a6.27,6.27,0,0,1-4.59-1.87,6,6,0,0,1-1.9-4.42V55.18H295.82V46.86h6.95a4.32,4.32,0,0,0,4.33-4.39V22.86h9.24V46.47H328v8.71H316.34v47.41C316.34,103.15,316.61,103.44,317.13,103.44Z"/><path class="cls-1" d="M396.65,82.85H345.19q.53,10,6,16.33t14.49,6.36a17.85,17.85,0,0,0,12.48-4.5A23.45,23.45,0,0,0,385,89.21l10.29,1.84a32.08,32.08,0,0,1-10.72,17.34,29,29,0,0,1-18.91,6.46q-13.84,0-22.52-9.81t-8.69-25.3q0-15.51,8.69-25.31t22.52-9.8q13.83,0,22.48,9.8t8.66,25.34C396.79,80.73,396.74,81.76,396.65,82.85Zm-16.91-23Q374.37,54,365.65,54t-14,5.84q-5.33,5.83-6.3,15.41H386Q385.12,65.74,379.74,59.87Z"/></g><g id="Layer_2-2" data-name="Layer 2"><path class="cls-1" d="M115.52,12.85c-.64.1-1.26.23-1.88.39-.36.09-.72.2-1.08.31s-.77.27-1.15.43l-.6.26a15.22,15.22,0,0,0-2.66,1.55l-.19.14a15.58,15.58,0,0,0-1.42,1.18c-.21.19-.41.39-.61.6a17.33,17.33,0,0,0-1.2,1.33c-.3.35-.59.73-.87,1.12l-.28.41c-.27.38-.54.78-.8,1.2s-.39.65-.58,1c-.1.16-.18.32-.27.48s-.33.6-.49.91l-.3.61c-.09.18-.18.36-.26.54s-.17.36-.26.55-.17.37-.25.57-.17.38-.25.57c-.32.75-.63,1.53-.93,2.35L99,30c-.1.3-.21.6-.32.91s-.13.39-.2.59c-.31.93-.61,1.91-.91,2.93-.07.25-.15.51-.22.78s-.14.52-.21.79-.15.53-.22.8l-.21.83q-.12.42-.21.84c-.15.57-.28,1.15-.42,1.75-.08.32-.15.66-.23,1s-.22,1-.32,1.49q-.6,2.8-1.15,6l-.18,1.06q-.18,1.06-.36,2.19c-.06.35-.11.7-.16,1.06-.51,3.22-1,6.69-1.42,10.44-.1.81-.19,1.63-.28,2.46-.07.57-.13,1.14-.19,1.72,0,.34-.08.7-.11,1-.11.93-.2,1.88-.3,2.85,0,.48-.09,1-.14,1.46s-.11,1.1-.16,1.67l-.12,1.32c0,.26,0,.51-.07.77s0,.62-.08.94,0,.4-.05.6,0,.4,0,.6,0,.34,0,.51c0,.67-.11,1.36-.17,2a1,1,0,0,1,0,.17c0,.48-.07,1-.11,1.44-.09,1.09-.17,2.19-.25,3.31l-.06.74c0,.38-.05.76-.08,1.14s-.07,1-.11,1.53l-.06,1c-.06.82-.12,1.65-.17,2.49q-.44,6.86-.82,14.49c0,.43,0,.85-.07,1.27-.17,3.57-.33,7.26-.49,11.09,0,.42,0,.85,0,1.28q-.24,6.16-.45,12.79c0,.39,0,.78,0,1.16,0,.79,0,1.59-.08,2.39,0-.8,0-1.6-.07-2.39-3.15-100.2-11.61-120-28-122.5A103,103,0,0,1,87.59,0,100,100,0,0,1,115.52,12.85Z"/><path class="cls-2" d="M87.59,137.71c-.11-.66-.24-1.31-.36-2C72,53.23,54.56,42.88,26.08,42.41A170.22,170.22,0,0,1,49.85,19.65c16.74,0,34.38,15.52,37.67,115.67C87.55,136.11,87.57,136.91,87.59,137.71Z"/><path class="cls-3" d="M87.59,137.71C64,68.85,0,80,0,80A198.29,198.29,0,0,1,17.31,53.24c27.83-3,54.5.1,69.92,82.51C87.35,136.4,87.48,137.05,87.59,137.71Z"/><path class="cls-2" d="M148.72,42.42C120.47,43,103.16,53.6,88,135.75c-.12.65-.25,1.3-.37,2,0-.8,0-1.6.08-2.39,0-.38,0-.77,0-1.16,3.36-98.45,20.72-114.3,37.3-114.5A173.5,173.5,0,0,1,148.72,42.42Z"/><path class="cls-3" d="M175.19,80s-64.67-11.16-87.6,57.7c.12-.66.25-1.31.37-2,15.35-82.06,41.86-85.47,69.56-82.55A210.22,210.22,0,0,1,175.19,80Z"/></g></g></svg>